<?xml version="1.0" encoding="UTF-8" standalone="no"?><!DOCTYPE svg PUBLIC "-//W3C//DTD SVG 1.1//EN" "http://www.w3.org/Graphics/SVG/1.1/DTD/svg11.dtd"><svg width="100%" height="100%" viewBox="0 0 16 16" version="1.1" xmlns="http://www.w3.org/2000/svg" xmlns:xlink="http://www.w3.org/1999/xlink" xml:space="preserve" style="fill-rule:evenodd;clip-rule:evenodd;stroke-linejoin:round;stroke-miterlimit:1.41421;"><g id="XMLID_1030_"><path d="M0,2.985l0,10.021c0,1.65 1.335,2.985 2.985,2.985l10.03,0c1.65,0 2.985,-1.335 2.985,-2.985l0,-10.021c0,-1.65 -1.335,-2.985 -2.985,-2.985l-10.03,0c-1.65,-0.009 -2.985,1.335 -2.985,2.985Zm10.507,9.227l0.965,-0.965l0,-5.637l-1.849,-1.849l-6.304,0l1.813,1.813l0.009,0l0,6.638l5.366,0Zm-0.965,-6.629l0,4.789l-2.489,0l0,-4.789l2.489,0Z" style="fill:#fff;"/></g></svg>