<?xml version="1.0" encoding="utf-8"?>
<!-- Generator: Adobe Illustrator 17.0.0, SVG Export Plug-In . SVG Version: 6.00 Build 0)  -->
<!DOCTYPE svg PUBLIC "-//W3C//DTD SVG 1.1//EN" "http://www.w3.org/Graphics/SVG/1.1/DTD/svg11.dtd">
<svg version="1.1" id="Livello_1" xmlns="http://www.w3.org/2000/svg" xmlns:xlink="http://www.w3.org/1999/xlink" x="0px" y="0px"
	 width="48px" height="48px" viewBox="0 0 48 48" enable-background="new 0 0 48 48" xml:space="preserve">
<path fill="none" stroke="#FFFFFF" stroke-width="2" stroke-linecap="round" stroke-miterlimit="10" d="M29.558,23.797l11.614-4.365
	v8.094c0,3.737-3.098,6.767-6.92,6.767H23.468v-9.491C25.533,24.863,27.61,24.529,29.558,23.797z M18.314,23.788l-5.07-1.915v12.399
	v5.737l5.243-2.875l4.981,2.875v-5.717v-9.491C21.714,24.749,19.967,24.412,18.314,23.788z M6.829,19.451v8.075
	c0,3.571,2.83,6.494,6.416,6.747v-12.4L6.829,19.451z M45.052,13.617L30.326,8.97c-4.141-1.307-8.642-1.304-12.781,0.008
	L2.957,13.603c-2.207,0.7-2.297,3.519-0.138,4.334l4.009,1.514l6.416,2.423l5.07,1.915c1.653,0.624,3.399,0.961,5.153,1.014
	c2.066,0.061,4.142-0.273,6.09-1.005l11.614-4.365l4.017-1.51C47.336,17.114,47.247,14.31,45.052,13.617z"/>
</svg>
