<?xml version="1.0" encoding="utf-8"?>
<!-- Generator: Adobe Illustrator 17.0.0, SVG Export Plug-In . SVG Version: 6.00 Build 0)  -->
<!DOCTYPE svg PUBLIC "-//W3C//DTD SVG 1.1//EN" "http://www.w3.org/Graphics/SVG/1.1/DTD/svg11.dtd">
<svg version="1.1" id="Livello_1" xmlns="http://www.w3.org/2000/svg" xmlns:xlink="http://www.w3.org/1999/xlink" x="0px" y="0px"
	 width="48px" height="48px" viewBox="0 0 48 48" enable-background="new 0 0 48 48" xml:space="preserve">
<path fill="none" stroke="#FFFFFF" stroke-width="2" stroke-linecap="round" stroke-miterlimit="10" d="M26.957,4.186l3.279,10.098
	c0.416,1.282,1.61,2.149,2.957,2.149h10.612c3.012,0,4.264,3.856,1.827,5.627l-8.585,6.241c-1.09,0.792-1.546,2.196-1.129,3.478
	l3.279,10.098c0.931,2.866-2.347,5.249-4.784,3.478l-8.585-6.241c-1.09-0.792-2.565-0.792-3.655,0l-8.586,6.241
	c-2.436,1.771-5.715-0.612-4.784-3.478l3.28-10.098c0.416-1.282-0.04-2.686-1.129-3.478L2.368,22.06
	c-2.437-1.771-1.185-5.627,1.827-5.627h10.612c1.347,0,2.54-0.868,2.956-2.149l3.28-10.098C21.974,1.32,26.026,1.32,26.957,4.186z"
	/>
</svg>
