<?xml version="1.0" encoding="utf-8"?>
<!-- Generator: Adobe Illustrator 17.0.0, SVG Export Plug-In . SVG Version: 6.00 Build 0)  -->
<!DOCTYPE svg PUBLIC "-//W3C//DTD SVG 1.1//EN" "http://www.w3.org/Graphics/SVG/1.1/DTD/svg11.dtd">
<svg version="1.1" id="Livello_1" xmlns="http://www.w3.org/2000/svg" xmlns:xlink="http://www.w3.org/1999/xlink" x="0px" y="0px"
	 width="48px" height="48px" viewBox="0 0 48 48" enable-background="new 0 0 48 48" xml:space="preserve">
<path fill="none" stroke="#FFFFFF" stroke-width="2" stroke-linecap="round" stroke-miterlimit="10" d="M38.232,27.955v-2.069
	 M38.232,25.887v-6.935c0-0.066-0.004-0.132-0.005-0.198 M9.774,18.753c-0.002,0.066-0.005,0.132-0.005,0.198v6.933 M9.769,25.885
	v2.071 M9.769,27.955v8.996c0,4.291,3.709,7.802,8.242,7.802H29.99c4.533,0,8.242-3.511,8.242-7.802v-8.996 M38.232,25.887h0.357
	c4.533,0,8.242-3.511,8.242-7.802v-1.1c0-6.159-4.339-11.405-10.266-13.135 M38.232,27.955h0.357c4.533,0,8.242-3.511,8.242-7.802
	v-2.068 M36.564,3.851c-1.345-0.392-2.771-0.604-4.247-0.604h-0.222 M11.515,3.975C5.521,5.869,1.17,11.242,1.17,17.532
	 M15.907,3.251c-1.53,0.034-3.005,0.286-4.392,0.724 M1.17,18.083v2.071c0,4.291,3.709,7.802,8.242,7.802h0.357 M1.17,18.083
	c0,4.291,3.709,7.802,8.242,7.802h0.357 M1.17,17.532v0.551 M15.907,3.251C16.842,5.449,20.111,7.072,24,7.072
	c3.892,0,7.162-1.625,8.095-3.825 M11.515,3.975C13.701,7.443,18.468,9.848,24,9.848c5.598,0,10.414-2.463,12.564-5.998
	 M17.931,20.702c0,1.072,0.568,1.949,1.263,1.949h9.611c0.695,0,1.263-0.877,1.263-1.949c0-1.072-0.568-1.949-1.263-1.949h-9.611
	C18.5,18.753,17.931,19.63,17.931,20.702z M17.931,26.339c0,1.072,0.568,1.949,1.263,1.949h9.611c0.695,0,1.263-0.877,1.263-1.949
	S29.5,24.39,28.806,24.39h-9.611C18.5,24.39,17.931,25.267,17.931,26.339z"/>
</svg>
