<?xml version="1.0" encoding="utf-8"?>
<!-- Generator: Adobe Illustrator 17.0.0, SVG Export Plug-In . SVG Version: 6.00 Build 0)  -->
<!DOCTYPE svg PUBLIC "-//W3C//DTD SVG 1.1//EN" "http://www.w3.org/Graphics/SVG/1.1/DTD/svg11.dtd">
<svg version="1.1" id="Livello_1" xmlns="http://www.w3.org/2000/svg" xmlns:xlink="http://www.w3.org/1999/xlink" x="0px" y="0px"
	 width="48px" height="48px" viewBox="0 0 48 48" enable-background="new 0 0 48 48" xml:space="preserve">
<path fill="none" stroke="#FFFFFF" stroke-width="2" stroke-linecap="round" stroke-miterlimit="10" d="M40.447,45.822H7.553
	c-3.478,0-6.324-2.77-6.324-6.156V22.835c0-3.386,2.846-6.157,6.324-6.157h32.894c3.478,0,6.324,2.77,6.324,6.157v16.831
	C46.771,43.052,43.925,45.822,40.447,45.822z M38.793,33.112v-3.723c0-3.386-2.846-6.156-6.324-6.156H15.532
	c-3.478,0-6.324,2.77-6.324,6.156v3.723c0,3.386,2.846,6.156,6.324,6.156h16.937C35.947,39.268,38.793,36.498,38.793,33.112z
	 M12.402,6.334l8.728,10.25L37.194,2.301 M12.402,6.334l8.728,10.25L37.194,2.301 M12.402,6.211l8.728,10.25L37.194,2.178
	 M12.402,6.211l8.728,10.25L37.194,2.178"/>
</svg>
