<?xml version="1.0" encoding="utf-8"?>
<!-- Generator: Adobe Illustrator 17.0.0, SVG Export Plug-In . SVG Version: 6.00 Build 0)  -->
<!DOCTYPE svg PUBLIC "-//W3C//DTD SVG 1.1//EN" "http://www.w3.org/Graphics/SVG/1.1/DTD/svg11.dtd">
<svg version="1.1" id="Livello_1" xmlns="http://www.w3.org/2000/svg" xmlns:xlink="http://www.w3.org/1999/xlink" x="0px" y="0px"
	 width="48px" height="48px" viewBox="0 0 48 48" enable-background="new 0 0 48 48" xml:space="preserve">
<path fill="none" stroke="#FFFFFF" stroke-width="2" stroke-linecap="round" stroke-miterlimit="10" d="M47.201,17.947v17.679
	c0,3.592-2.9,6.531-6.444,6.531H7.243c-3.544,0-6.444-2.939-6.444-6.531V17.947c0-3.458,2.687-6.309,6.049-6.518
	c0.455-3.149,3.147-5.587,6.375-5.587h3.147c3.223,0,5.913,2.431,6.374,5.573h18.015C44.302,11.416,47.201,14.355,47.201,17.947z"/>
<path fill="none" stroke="#FFFFFF" stroke-width="1.5" stroke-linecap="round" stroke-miterlimit="10" d="M16.267,21.17
	L16.267,21.17c0-0.814-0.657-1.48-1.461-1.48H9.609c-0.804,0-1.461,0.666-1.461,1.48l0,0c0,0.814,0.657,1.48,1.461,1.48h5.198
	C15.61,22.65,16.267,21.984,16.267,21.17z"/>
<ellipse fill="none" stroke="#FFFFFF" stroke-width="2" stroke-linecap="round" stroke-miterlimit="10" cx="31.74" cy="26.982" rx="7.623" ry="7.727"/>
</svg>
