<?xml version="1.0" encoding="utf-8"?>
<!-- Generator: Adobe Illustrator 17.0.0, SVG Export Plug-In . SVG Version: 6.00 Build 0)  -->
<!DOCTYPE svg PUBLIC "-//W3C//DTD SVG 1.1//EN" "http://www.w3.org/Graphics/SVG/1.1/DTD/svg11.dtd">
<svg version="1.1" id="Livello_1" xmlns="http://www.w3.org/2000/svg" xmlns:xlink="http://www.w3.org/1999/xlink" x="0px" y="0px"
	 width="48px" height="48px" viewBox="0 0 48 48" enable-background="new 0 0 48 48" xml:space="preserve">
<path fill="none" stroke="#FFFFFF" stroke-width="2" stroke-linecap="round" stroke-miterlimit="10" d="M1.157,23.625
	c-0.007,0.119-0.012,0.239-0.012,0.361V40.22c0,3.266,2.756,5.938,6.125,5.938h31.859c3.369,0,6.125-2.672,6.125-5.938V23.986
	c0-0.121-0.005-0.241-0.012-0.361 M1.241,22.948C1.2,23.17,1.172,23.396,1.157,23.625 M45.243,23.625
	c-0.015-0.23-0.043-0.456-0.084-0.678 M8.049,19.526c-3.783,0.877-6.3,2.078-6.808,3.422 M17.715,18.217
	c-3.663,0.229-6.958,0.684-9.627,1.3 M23.2,18.048c-1.894,0-3.731,0.059-5.485,0.169 M8.088,19.517
	c-0.013,0.003-0.026,0.006-0.039,0.009 M38.425,19.543c-0.001-0.001-0.003-0.001-0.004-0.001 M28.772,18.222
	c-1.78-0.114-3.647-0.174-5.572-0.174 M38.42,19.542c-2.667-0.624-5.971-1.085-9.648-1.319 M45.159,22.948
	c-0.504-1.335-2.992-2.53-6.734-3.405 M39.085,27.201c3.668-0.933,5.979-2.188,6.158-3.575 M7.315,27.201
	c4.012,1.02,9.646,1.655,15.885,1.655s11.873-0.635,15.885-1.655 M45.243,23.625c0.007-0.058,0.012-0.115,0.012-0.173
	c0-0.17-0.034-0.338-0.096-0.504 M1.157,23.625c0.179,1.387,2.49,2.642,6.158,3.575 M1.241,22.948
	c-0.063,0.166-0.096,0.334-0.096,0.504c0,0.058,0.005,0.116,0.012,0.173 M12.787,24.298C9.47,25.004,7.359,26.042,7.314,27.2
	 M20.665,23.395c-2.986,0.117-5.693,0.439-7.877,0.903 M25.823,23.399c-0.854-0.035-1.729-0.053-2.623-0.053
	c-0.863,0-1.709,0.017-2.535,0.049 M39.085,27.201c-0.044-1.15-2.125-2.181-5.399-2.886 M33.687,24.314
	c-2.176-0.469-4.879-0.794-7.864-0.916 M8.049,19.526l0.039,0.039 M12.787,24.298l-4.7-4.733 M20.665,23.395l-2.95-5.178
	 M38.42,19.547l-4.734,4.767 M38.425,19.543l-0.004,0.004 M25.823,23.399l2.949-5.176 M8.088,19.517V9.345 M8.088,19.565v-0.048
	 M8.088,9.345l7.033-3.105L8.088,3.39V9.345 M23.2,7.797l7.033-3.105L23.2,1.842V7.797 M23.2,7.797v10.251 M38.42,9.052v10.49
	 M38.42,19.547v-0.006 M38.42,9.052l7.033-3.105l-7.033-2.85V9.052"/>
<path fill="none" stroke="#FFFFFF" stroke-width="2" stroke-linecap="round" stroke-miterlimit="10" d="M15.924,38.773h14.771v7.385
	H15.924V38.773z"/>
<path fill="none" stroke="#FFFFFF" stroke-width="2" stroke-linecap="round" stroke-miterlimit="10" d="M10.385,33.234h25.849
	v12.924H10.385V33.234z"/>
</svg>
