<svg width="724.7" height="600" xmlns="http://www.w3.org/2000/svg">

 <g>
  <title>background</title>
  <rect fill="none" id="canvas_background" height="402" width="582" y="-1" x="-1"/>
 </g>
 <g>
  <title>Layer 1</title>
  <path fill-opacity="0" id="svg_1" d="m53.299999,404.700012c0,84.399994 109.899998,152.799988 245.399982,152.799988s245.399994,-68.399994 245.399994,-152.799988c0,-84.399994 -109.899994,-152.800003 -245.399994,-152.800003s-245.399982,68.399979 -245.399982,152.800003" fill="#007fff"/>
  <path id="svg_2" d="m304.5,544.099976c-120,11.900024 -223.599998,-42.399963 -231.400002,-121.099976c-7.799995,-78.799988 83.200005,-152.200012 203.100014,-164.100006c120,-11.900009 223.600006,42.399994 231.299988,121.100006c7.900024,78.799988 -83.100006,152.299988 -203,164.099976m239.900024,-261.499969c-10.200012,-3.100006 -17.200012,-5.100006 -11.900024,-18.5c11.600037,-29.099991 12.800049,-54.199997 0.200012,-72.199997c-23.5,-33.600006 -87.899994,-31.800003 -161.699982,-0.899994c0,0 -23.200012,10.099991 -17.200012,-8.200012c11.300018,-36.5 9.600006,-66.999992 -8,-84.699989c-40,-40.100002 -146.499985,1.5 -237.799995,92.800011c-68.300022,68.299988 -108.000023,140.799988 -108.000023,203.499969c0,119.800018 153.699997,192.699982 304,192.699982c197.100006,0 328.200012,-114.5 328.200012,-205.399963c0.099976,-55 -46.200012,-86.200012 -87.799988,-99.100006" fill="#ffffff"/>
  <path id="svg_3" d="m675.299988,63.299999c-47.599976,-52.799999 -117.799988,-72.9 -182.599976,-59.099999l0,0c-15,3.2 -24.5,18.000001 -21.299988,32.899999c3.199982,15 17.899994,24.5 32.899994,21.300003c46.100006,-9.800003 95.999969,4.5 129.800018,42c33.799988,37.499992 43,88.599998 28.5,133.399986l0,0c-4.700012,14.600006 3.299988,30.200012 17.899963,34.900024c14.600037,4.699982 30.200012,-3.300018 34.900024,-17.800018c0,0 0,-0.099991 0,-0.099991c20.399963,-62.900009 7.5,-134.800003 -40.100037,-187.500004" fill="#ffffff"/>
  <path id="svg_4" d="m602.200012,129.300003c-23.200012,-25.700005 -57.400024,-35.5 -88.900024,-28.700005c-12.899963,2.700005 -21.099976,15.5 -18.399963,28.400002c2.799988,12.899994 15.5,21.100006 28.299988,18.300003l0,0c15.400024,-3.300003 32.200012,1.5 43.5,14c11.299988,12.599991 14.400024,29.699997 9.5,44.699997l0,0c-4,12.5 2.799988,26 15.400024,30.100006c12.599976,4 26,-2.800003 30.099976,-15.400009c9.899963,-30.699997 3.700012,-65.699997 -19.5,-91.399994" fill="#ffffff"/>
  <path fill="#ffffff" id="svg_5" d="m311.100006,401.5c-4.199982,7.200012 -13.5,10.600006 -20.699982,7.600006c-7.200012,-2.899994 -9.400024,-11 -5.300018,-18c4.199982,-7 13.100006,-10.399994 20.200012,-7.600006c7.199982,2.600006 9.799988,10.700012 5.799988,18m-38.300018,49c-11.600006,18.5 -36.5,26.600006 -55.199997,18.100006c-18.399994,-8.399994 -23.899994,-29.899994 -12.300003,-48c11.5,-18 35.5,-26 54.100006,-18.200012c18.800018,8.100006 24.800018,29.399994 13.399994,48.100006m43.600006,-131c-57.100006,-14.899994 -121.599991,13.600006 -146.399994,63.899994c-25.300003,51.300018 -0.800003,108.300018 56.800003,126.899994c59.800003,19.299988 130.199997,-10.299988 154.699997,-65.599976c24.200012,-54.200012 -6,-109.900024 -65.100006,-125.200012"/>
 </g>
</svg>